{"accessors" : [{"bufferView" : 0, "byteOffset" : 0, "componentType" : 5123, "count" : 858, "type" : "SCALAR", "max" : [857], "min" : [0]}, {"bufferView" : 1, "byteOffset" : 0, "componentType" : 5126, "count" : 858, "type" : "VEC3", "max" : [2.6089818477630615, 1.3008885383605957, 1.4996562004089355], "min" : [-2.6089818477630615, -0.9569286704063416, -1.9907971620559692], "name" : "POSITION"}, {"bufferView" : 1, "byteOffset" : 12, "componentType" : 5126, "count" : 858, "type" : "VEC3", "max" : [0.9994997382164001, 0.9994646310806274, 0.9984513521194458], "min" : [-0.9994996786117554, -0.9985068440437317, -1.0000042915344238], "name" : "NORMAL"}, {"bufferView" : 1, "byteOffset" : 24, "componentType" : 5126, "count" : 858, "type" : "VEC2", "max" : [1.0014389753341675, -0.01000000536441803], "min" : [0.5, -0.9166666269302368], "name" : "TEXCOORD_0"}, {"bufferView" : 0, "byteOffset" : 1716, "componentType" : 5123, "count" : 300, "type" : "SCALAR", "max" : [299], "min" : [0]}, {"bufferView" : 2, "byteOffset" : 0, "componentType" : 5126, "count" : 300, "type" : "VEC3", "max" : [3.472533702850342, 1.5334951877593994, 1.226487636566162], "min" : [-3.472533702850342, -0.1836191713809967, -1.9675631523132324], "name" : "POSITION"}, {"bufferView" : 2, "byteOffset" : 12, "componentType" : 5126, "count" : 300, "type" : "VEC3", "max" : [0.9984761476516724, 0.9993377923965454, 0.9985526204109192], "min" : [-0.9984761476516724, -0.9978876113891602, -0.9963402152061462], "name" : "NORMAL"}, {"bufferView" : 2, "byteOffset" : 24, "componentType" : 5126, "count" : 300, "type" : "VEC2", "max" : [1, -0.5057195425033569], "min" : [0.6684299111366272, -0.8807991743087769], "name" : "TEXCOORD_0"}, {"bufferView" : 0, "byteOffset" : 2316, "componentType" : 5123, "count" : 210, "type" : "SCALAR", "max" : [209], "min" : [0]}, {"bufferView" : 3, "byteOffset" : 0, "componentType" : 5126, "count" : 210, "type" : "VEC3", "max" : [0.8574609160423279, 0.8574609756469727, 1.9907972812652588], "min" : [-0.8574609160423279, -0.8574609160423279, 1.499656081199646], "name" : "POSITION"}, {"bufferView" : 3, "byteOffset" : 12, "componentType" : 5126, "count" : 210, "type" : "VEC3", "max" : [0.9238835573196411, 0.9238834977149963, 1.0000044107437134], "min" : [-0.9238835573196411, -0.9238835573196411, -7.479319208414381E-08], "name" : "NORMAL"}, {"bufferView" : 3, "byteOffset" : 24, "componentType" : 5126, "count" : 210, "type" : "VEC2", "max" : [1, -0.01000000536441803], "min" : [0.2499999850988388, -1], "name" : "TEXCOORD_0"}, {"bufferView" : 0, "byteOffset" : 2736, "componentType" : 5123, "count" : 60, "type" : "SCALAR", "max" : [59], "min" : [0]}, {"bufferView" : 4, "byteOffset" : 0, "componentType" : 5126, "count" : 60, "type" : "VEC3", "max" : [0.5269986391067505, 1.2694015502929688, 0.846312403678894], "min" : [-0.5269986391067505, 0.6696470975875854, -0.5159408450126648], "name" : "POSITION"}, {"bufferView" : 4, "byteOffset" : 12, "componentType" : 5126, "count" : 60, "type" : "VEC3", "max" : [0.8822716474533081, 0.951996922492981, 0.5988079309463501], "min" : [-0.9075754880905151, 0.4179694354534149, -0.7753934860229492], "name" : "NORMAL"}, {"bufferView" : 4, "byteOffset" : 24, "componentType" : 5126, "count" : 60, "type" : "VEC2", "max" : [1.0014389753341675, -0.6831039786338806], "min" : [0.9028869867324829, -0.8168330788612366], "name" : "TEXCOORD_0"}, {"bufferView" : 0, "byteOffset" : 2856, "componentType" : 5123, "count" : 114, "type" : "SCALAR", "max" : [113], "min" : [0]}, {"bufferView" : 5, "byteOffset" : 0, "componentType" : 5126, "count" : 114, "type" : "VEC3", "max" : [0.9468454122543335, 0.9468454718589783, 2.532348871231079], "min" : [-0.9468454718589783, -0.9468454718589783, 1.7918354272842407], "name" : "POSITION"}, {"bufferView" : 5, "byteOffset" : 12, "componentType" : 5126, "count" : 114, "type" : "VEC3", "max" : [0.7814618349075317, 0.781461775302887, 1.0000042915344238], "min" : [-0.7814618349075317, -0.7814617156982422, 0.5334320664405823], "name" : "NORMAL"}, {"bufferView" : 5, "byteOffset" : 24, "componentType" : 5126, "count" : 114, "type" : "VEC2", "max" : [1, -1], "min" : [0, -1], "name" : "TEXCOORD_0"}, {"bufferView" : 0, "byteOffset" : 3084, "componentType" : 5123, "count" : 402, "type" : "SCALAR", "max" : [401], "min" : [0]}, {"bufferView" : 6, "byteOffset" : 0, "componentType" : 5126, "count" : 402, "type" : "VEC3", "max" : [5.866715431213379, 1, 1.7918354272842407], "min" : [-5.866714954376221, -1, -1], "name" : "POSITION"}, {"bufferView" : 6, "byteOffset" : 12, "componentType" : 5126, "count" : 402, "type" : "VEC3", "max" : [0.9238835573196411, 0.9857736825942993, 0.9964102506637573], "min" : [-0.9238836169242859, -0.9857738018035889, -1.0000042915344238], "name" : "NORMAL"}, {"bufferView" : 6, "byteOffset" : 24, "componentType" : 5126, "count" : 402, "type" : "VEC2", "max" : [1, -0.01000000536441803], "min" : [0, -1.0000001192092896], "name" : "TEXCOORD_0"}], "asset" : {"generator" : "Aspose.3D 23.9.0", "version" : "2.0"}, "buffers" : [{"uri" : "data:application/octet-stream;base64,", "byteLength" : 66124}], "bufferViews" : [{"buffer" : 0, "byteOffset" : 0, "byteLength" : 3888, "target" : 34963}, {"buffer" : 0, "byteOffset" : 3892, "byteLength" : 27456, "byteStride" : 32, "target" : 34962}, {"buffer" : 0, "byteOffset" : 31352, "byteLength" : 9600, "byteStride" : 32, "target" : 34962}, {"buffer" : 0, "byteOffset" : 40956, "byteLength" : 6720, "byteStride" : 32, "target" : 34962}, {"buffer" : 0, "byteOffset" : 47680, "byteLength" : 1920, "byteStride" : 32, "target" : 34962}, {"buffer" : 0, "byteOffset" : 49604, "byteLength" : 3648, "byteStride" : 32, "target" : 34962}, {"buffer" : 0, "byteOffset" : 53256, "byteLength" : 12864, "byteStride" : 32, "target" : 34962}], "materials" : [{"name" : "Material.001", "pbrMetallicRoughness" : {"baseColorFactor" : [0.055902961641550064, 0.11927563697099686, 0.048340097069740295, 1], "metallicFactor" : 0, "roughnessFactor" : 0}, "emissiveFactor" : [0.055902961641550064, 0.11927563697099686, 0.048340097069740295], "alphaMode" : "OPAQUE", "doubleSided" : false}, {"name" : "Material.002", "pbrMetallicRoughness" : {"baseColorFactor" : [0.4292253851890564, 0.016739122569561005, 0.018643394112586975, 1], "metallicFactor" : 0, "roughnessFactor" : 0}, "emissiveFactor" : [0.4292253851890564, 0.016739122569561005, 0.018643394112586975], "alphaMode" : "OPAQUE", "doubleSided" : false}, {"name" : "Material.003", "pbrMetallicRoughness" : {"baseColorFactor" : [0.5465646386146545, 0.5465646386146545, 0.5465646386146545, 1], "metallicFactor" : 0, "roughnessFactor" : 0}, "emissiveFactor" : [0.5465646386146545, 0.5465646386146545, 0.5465646386146545], "alphaMode" : "OPAQUE", "doubleSided" : false}, {"name" : "Material.004", "pbrMetallicRoughness" : {"baseColorFactor" : [0.11718360334634781, 0.18538598716259003, 0.19598807394504547, 1], "metallicFactor" : 0, "roughnessFactor" : 0}, "emissiveFactor" : [0.11718360334634781, 0.18538598716259003, 0.19598807394504547], "alphaMode" : "OPAQUE", "doubleSided" : false}, {"name" : "Material.003", "pbrMetallicRoughness" : {"baseColorFactor" : [0.5465646386146545, 0.5465646386146545, 0.5465646386146545, 1], "metallicFactor" : 0, "roughnessFactor" : 0}, "emissiveFactor" : [0.5465646386146545, 0.5465646386146545, 0.5465646386146545], "alphaMode" : "OPAQUE", "doubleSided" : false}, {"name" : "Material.005", "pbrMetallicRoughness" : {"baseColorFactor" : [0.060719847679138184, 0.060719847679138184, 0.060719847679138184, 1], "metallicFactor" : 0, "roughnessFactor" : 0}, "emissiveFactor" : [0.060719847679138184, 0.060719847679138184, 0.060719847679138184], "alphaMode" : "OPAQUE", "doubleSided" : false}], "meshes" : [{"primitives" : [{"attributes" : {"POSITION" : 1, "NORMAL" : 2, "TEXCOORD_0" : 3}, "indices" : 0, "material" : 0, "mode" : 4}, {"attributes" : {"POSITION" : 5, "NORMAL" : 6, "TEXCOORD_0" : 7}, "indices" : 4, "material" : 1, "mode" : 4}, {"attributes" : {"POSITION" : 9, "NORMAL" : 10, "TEXCOORD_0" : 11}, "indices" : 8, "material" : 2, "mode" : 4}, {"attributes" : {"POSITION" : 13, "NORMAL" : 14, "TEXCOORD_0" : 15}, "indices" : 12, "material" : 3, "mode" : 4}], "name" : "Cylinder"}, {"primitives" : [{"attributes" : {"POSITION" : 17, "NORMAL" : 18, "TEXCOORD_0" : 19}, "indices" : 16, "material" : 4, "mode" : 4}, {"attributes" : {"POSITION" : 21, "NORMAL" : 22, "TEXCOORD_0" : 23}, "indices" : 20, "material" : 5, "mode" : 4}], "name" : "Cylinder.001"}], "nodes" : [{"matrix" : [0.30391305685043335, 1.3297504823663696E-23, 3.042114449783639E-16, 0, -1.3297504823663696E-23, 0.30391305685043335, -6.655280192938628E-39, 0, -3.042114449783639E-16, -6.655280396119294E-39, 0.30391305685043335, 0, -3.725290298461914E-09, 7.862490747356787E-08, 1.7987282276153564, 1], "mesh" : 1, "name" : "Cylinder.001"}, {"children" : [0], "matrix" : [100, 0, 0, 0, 0, 99.9999999999999, 4.371138828673791E-06, 0, 0, -4.371138828673791E-06, 99.9999999999999, 0, 0, 300, 0, 1], "mesh" : 0, "name" : "Cylinder"}], "scene" : 0, "scenes" : [{"nodes" : [1]}]}