{"accessors" : [{"bufferView" : 0, "byteOffset" : 0, "componentType" : 5123, "count" : 192, "type" : "SCALAR", "max" : [191], "min" : [0]}, {"bufferView" : 1, "byteOffset" : 0, "componentType" : 5126, "count" : 192, "type" : "VEC3", "max" : [28.664033889770508, 28.664033889770508, 5.115719859446338E-14], "min" : [-28.664033889770508, -28.66402816772461, -74.6350326538086], "name" : "POSITION"}, {"bufferView" : 1, "byteOffset" : 12, "componentType" : 5126, "count" : 192, "type" : "VEC3", "max" : [0.9198020696640015, 0.9198020100593567, 0.254190057516098], "min" : [-0.9198020100593567, -0.919802188873291, -0.17810289561748505], "name" : "NORMAL"}, {"bufferView" : 1, "byteOffset" : 24, "componentType" : 5126, "count" : 192, "type" : "VEC4", "max" : [0, 1, 0, 1], "min" : [0, 1, 0, 1], "name" : "TANGENT"}, {"bufferView" : 1, "byteOffset" : 40, "componentType" : 5126, "count" : 192, "type" : "VEC2", "max" : [0.875, -0], "min" : [-0.125, -0], "name" : "TEXCOORD_0"}, {"bufferView" : 0, "byteOffset" : 384, "componentType" : 5123, "count" : 456, "type" : "SCALAR", "max" : [455], "min" : [0]}, {"bufferView" : 2, "byteOffset" : 0, "componentType" : 5126, "count" : 456, "type" : "VEC3", "max" : [34.596466064453125, 35.29905700683594, 35.43480682373047], "min" : [-34.596466064453125, -33.89387512207031, -107.23097229003906], "name" : "POSITION"}, {"bufferView" : 2, "byteOffset" : 12, "componentType" : 5126, "count" : 456, "type" : "VEC3", "max" : [1.0000044107437134, 1.0000044107437134, 0.6536850929260254], "min" : [-1.0000044107437134, -1.0000044107437134, -0.972403883934021], "name" : "NORMAL"}, {"bufferView" : 2, "byteOffset" : 24, "componentType" : 5126, "count" : 456, "type" : "VEC4", "max" : [1.0000044107437134, 1.0000044107437134, 0.7071097493171692, 1], "min" : [-1.0000044107437134, -1.0000044107437134, -0.9898709654808044, -1], "name" : "TANGENT"}, {"bufferView" : 2, "byteOffset" : 40, "componentType" : 5126, "count" : 456, "type" : "VEC2", "max" : [1, -0], "min" : [-0.125, -1], "name" : "TEXCOORD_0"}, {"bufferView" : 0, "byteOffset" : 1296, "componentType" : 5123, "count" : 378, "type" : "SCALAR", "max" : [377], "min" : [0]}, {"bufferView" : 3, "byteOffset" : 0, "componentType" : 5126, "count" : 378, "type" : "VEC3", "max" : [23.411035537719727, 23.411039352416992, -11.253301620483398], "min" : [-23.411035537719727, -28.836864471435547, -86.2977066040039], "name" : "POSITION"}, {"bufferView" : 3, "byteOffset" : 12, "componentType" : 5126, "count" : 378, "type" : "VEC3", "max" : [1.0000044107437134, 0.8952966332435608, 0.9510607123374939], "min" : [-1.0000044107437134, -1.0000044107437134, -1.0000044107437134], "name" : "NORMAL"}, {"bufferView" : 3, "byteOffset" : 24, "componentType" : 5126, "count" : 378, "type" : "VEC4", "max" : [0, 1, 0, 1], "min" : [0, 1, 0, 1], "name" : "TANGENT"}, {"bufferView" : 3, "byteOffset" : 40, "componentType" : 5126, "count" : 378, "type" : "VEC2", "max" : [0.9500000476837158, -0], "min" : [-0.125, -0.5], "name" : "TEXCOORD_0"}, {"bufferView" : 0, "byteOffset" : 2052, "componentType" : 5123, "count" : 300, "type" : "SCALAR", "max" : [299], "min" : [0]}, {"bufferView" : 4, "byteOffset" : 0, "componentType" : 5126, "count" : 300, "type" : "VEC3", "max" : [17.358993530273438, 16.385955810546875, -79.8008804321289], "min" : [-17.358997344970703, -16.385948181152344, -154.53627014160156], "name" : "POSITION"}, {"bufferView" : 4, "byteOffset" : 12, "componentType" : 5126, "count" : 300, "type" : "VEC3", "max" : [0.9653980731964111, 0.9759695529937744, 0.997728705406189], "min" : [-0.9653980731964111, -0.9759695529937744, -0.997728705406189], "name" : "NORMAL"}, {"bufferView" : 4, "byteOffset" : 24, "componentType" : 5126, "count" : 300, "type" : "VEC4", "max" : [0.9687672257423401, 0.9554255604743958, 0.8347601294517517, 1], "min" : [-0.9687672257423401, -0.9554256200790405, -0.8347602486610413, 1], "name" : "TANGENT"}, {"bufferView" : 4, "byteOffset" : 40, "componentType" : 5126, "count" : 300, "type" : "VEC2", "max" : [0.9000000357627869, -0.00010992809984600171], "min" : [-0.19999998807907104, -0.9998900294303894], "name" : "TEXCOORD_0"}, {"bufferView" : 0, "byteOffset" : 2652, "componentType" : 5123, "count" : 120, "type" : "SCALAR", "max" : [119], "min" : [0]}, {"bufferView" : 5, "byteOffset" : 0, "componentType" : 5126, "count" : 120, "type" : "VEC3", "max" : [12.372624397277832, -28.836864471435547, -15.029265403747559], "min" : [-12.372625350952148, -41.84621047973633, -41.04795837402344], "name" : "POSITION"}, {"bufferView" : 5, "byteOffset" : 12, "componentType" : 5126, "count" : 120, "type" : "VEC3", "max" : [0.9920822978019714, -0.12562429904937744, 0.9435264468193054], "min" : [-0.9822512269020081, -0.9435263276100159, -0.9435264468193054], "name" : "NORMAL"}, {"bufferView" : 5, "byteOffset" : 24, "componentType" : 5126, "count" : 120, "type" : "VEC4", "max" : [0.9996801614761353, 0.024907952174544334, 1.0000044107437134, 1], "min" : [-0.9996801614761353, -0.02490796521306038, -1.0000044107437134, 1], "name" : "TANGENT"}, {"bufferView" : 5, "byteOffset" : 40, "componentType" : 5126, "count" : 120, "type" : "VEC2", "max" : [0.9500000476837158, -0.5], "min" : [-0.09999996423721313, -1], "name" : "TEXCOORD_0"}], "asset" : {"generator" : "Aspose.3D 23.9.0", "version" : "2.0"}, "buffers" : [{"uri" : "data:application/octet-stream;base64,", "byteLength" : 72324}], "bufferViews" : [{"buffer" : 0, "byteOffset" : 0, "byteLength" : 2892, "target" : 34963}, {"buffer" : 0, "byteOffset" : 2896, "byteLength" : 9216, "byteStride" : 48, "target" : 34962}, {"buffer" : 0, "byteOffset" : 12116, "byteLength" : 21888, "byteStride" : 48, "target" : 34962}, {"buffer" : 0, "byteOffset" : 34008, "byteLength" : 18144, "byteStride" : 48, "target" : 34962}, {"buffer" : 0, "byteOffset" : 52156, "byteLength" : 14400, "byteStride" : 48, "target" : 34962}, {"buffer" : 0, "byteOffset" : 66560, "byteLength" : 5760, "byteStride" : 48, "target" : 34962}], "materials" : [{"name" : "Material #27", "pbrMetallicRoughness" : {"baseColorFactor" : [0.6901960968971252, 0.6901960968971252, 0.6901960968971252, 1], "metallicFactor" : 0, "roughnessFactor" : 0}, "emissiveFactor" : [0, 0, 0], "alphaMode" : "OPAQUE", "doubleSided" : false}, {"name" : "Material #28", "pbrMetallicRoughness" : {"baseColorFactor" : [0.6274510025978088, 0, 0, 1], "metallicFactor" : 0, "roughnessFactor" : 0}, "emissiveFactor" : [0, 0, 0], "alphaMode" : "OPAQUE", "doubleSided" : false}, {"name" : "Material #29", "pbrMetallicRoughness" : {"baseColorFactor" : [0.37254902720451355, 0.37254902720451355, 0.37254902720451355, 1], "metallicFactor" : 0, "roughnessFactor" : 0}, "emissiveFactor" : [0, 0, 0], "alphaMode" : "OPAQUE", "doubleSided" : false}, {"name" : "Material #42", "pbrMetallicRoughness" : {"baseColorFactor" : [0.24313725531101227, 0.24313725531101227, 0.24313725531101227, 1], "metallicFactor" : 0, "roughnessFactor" : 0}, "emissiveFactor" : [0, 0, 0], "alphaMode" : "OPAQUE", "doubleSided" : false}, {"name" : "Material #30", "pbrMetallicRoughness" : {"baseColorFactor" : [0.18039216101169586, 0.658823549747467, 0.8039215803146362, 1], "metallicFactor" : 0, "roughnessFactor" : 0}, "emissiveFactor" : [0, 0, 0], "alphaMode" : "OPAQUE", "doubleSided" : false}], "meshes" : [{"primitives" : [{"attributes" : {"POSITION" : 1, "NORMAL" : 2, "TANGENT" : 3, "TEXCOORD_0" : 4}, "indices" : 0, "material" : 0, "mode" : 4}, {"attributes" : {"POSITION" : 6, "NORMAL" : 7, "TANGENT" : 8, "TEXCOORD_0" : 9}, "indices" : 5, "material" : 1, "mode" : 4}, {"attributes" : {"POSITION" : 11, "NORMAL" : 12, "TANGENT" : 13, "TEXCOORD_0" : 14}, "indices" : 10, "material" : 2, "mode" : 4}, {"attributes" : {"POSITION" : 16, "NORMAL" : 17, "TANGENT" : 18, "TEXCOORD_0" : 19}, "indices" : 15, "material" : 3, "mode" : 4}, {"attributes" : {"POSITION" : 21, "NORMAL" : 22, "TANGENT" : 23, "TEXCOORD_0" : 24}, "indices" : 20, "material" : 4, "mode" : 4}], "name" : ""}], "nodes" : [{"matrix" : [0.7071067811865476, -0.7071067811865475, -4.329780281177466E-17, 0, 0, 6.123233995736766E-17, -1, 0, 0.7071067811865475, 0.7071067811865476, 4.329780281177467E-17, 0, 42.108727134328056, 42.10872618065375, -3.2735767364501926, 1], "mesh" : 0, "name" : "Rocket Ship 01"}], "scene" : 0, "scenes" : [{"nodes" : [0]}]}